Coordinates
version=1
nRows=14
nColumns=63
inDegrees=yes

Units are S.I. units (second, meters, Newtons, ...)
If the header above contains a line with 'inDegrees', this indicates whether rotational values are in degrees (yes) or radians (no).

endheader
time	pelvis_tilt	pelvis_list	pelvis_rotation	pelvis_tx	pelvis_ty	pelvis_tz	hip_flexion_r	hip_adduction_r	hip_rotation_r	knee_angle_r	knee_angle_r_beta	ankle_angle_r	subtalar_angle_r	mtp_angle_r	hip_flexion_l	hip_adduction_l	hip_rotation_l	knee_angle_l	knee_angle_l_beta	ankle_angle_l	subtalar_angle_l	mtp_angle_l	L5_S1_Flex_Ext	L5_S1_Lat_Bending	L5_S1_axial_rotation	L4_L5_Flex_Ext	L4_L5_Lat_Bending	L4_L5_axial_rotation	L3_L4_Flex_Ext	L3_L4_Lat_Bending	L3_L4_axial_rotation	L2_L3_Flex_Ext	L2_L3_Lat_Bending	L2_L3_axial_rotation	L1_L2_Flex_Ext	L1_L2_Lat_Bending	L1_L2_axial_rotation	L1_T12_Flex_Ext	L1_T12_Lat_Bending	L1_T12_axial_rotation	Abs_r3	Abs_r2	Abs_r1	Abs_t1	Abs_t2	neck_flexion	neck_bending	neck_rotation	arm_flex_r	arm_add_r	arm_rot_r	elbow_flex_r	pro_sup_r	wrist_flex_r	wrist_dev_r	arm_flex_l	arm_add_l	arm_rot_l	elbow_flex_l	pro_sup_l	wrist_flex_l	wrist_dev_l
1.146341	3.423433	-8.929756	91.949472	0.207137	0.887350	0.498266	-3.524131	-0.536684	-7.942552	0.895457	0.015629	21.370261	10.431910	0.000000	-0.961190	-1.366837	0.992707	0.443517	0.007741	25.084135	6.734449	0.000000	-0.056856	-0.197993	-0.960163	-0.105588	-0.263330	-1.020174	-0.093409	-0.481400	-1.020174	-0.064981	-0.481400	-0.840143	-0.052797	-0.403747	-0.780133	-0.032488	-0.306691	-0.720122	-0.406119	-2.239735	-5.340140	0.000000	0.000000	23.914715	-0.512621	-0.166178	-0.405963	-10.594824	17.180145	111.293698	78.888418	-0.993214	5.485252	1.287599	-30.212948	32.504279	115.743351	69.840068	-7.708403	4.209630
1.170732	3.483833	-9.807255	91.534482	0.208054	0.886343	0.499688	-2.302482	-0.534538	-7.335179	1.088969	0.019006	21.466628	10.271671	0.000000	0.050323	-1.411865	0.529524	0.443801	0.007746	25.286898	6.909673	0.000000	-0.085521	-0.209145	-0.832093	-0.158821	-0.278163	-0.884099	-0.140503	-0.508516	-0.884099	-0.097742	-0.508516	-0.728081	-0.079415	-0.426489	-0.676075	-0.048867	-0.323966	-0.624070	-0.610869	-2.365894	-4.627850	0.000000	0.000000	23.257708	-0.661117	0.129807	-0.376687	-10.308815	16.798254	112.819828	79.374411	-2.816423	5.070199	1.760060	-30.459887	33.387948	116.239950	69.213446	-8.354741	4.606471
1.195122	3.536719	-10.777465	91.109210	0.208984	0.885059	0.501714	-0.889014	-0.523539	-6.756260	1.381160	0.024106	21.685937	10.162690	0.000000	1.190702	-1.462541	0.249168	0.452074	0.007890	25.422908	6.824034	0.000000	-0.118335	-0.223306	-0.701085	-0.219759	-0.296997	-0.744903	-0.194412	-0.542945	-0.744903	-0.135245	-0.542945	-0.613449	-0.109885	-0.455365	-0.569632	-0.067616	-0.345900	-0.525814	-0.845252	-2.526078	-3.899225	0.000000	0.000000	22.270497	-0.683365	0.484905	0.005817	-10.195854	16.894942	114.031207	80.098792	-4.724781	4.599338	2.375198	-30.581401	34.337452	116.179648	68.454210	-8.749824	5.047879
1.219512	3.574068	-11.865890	90.689561	0.209934	0.883447	0.504417	0.751721	-0.515498	-6.292605	1.792311	0.031282	22.050545	10.200589	0.000000	2.512962	-1.525273	-0.090201	0.519308	0.009064	25.550933	6.805749	0.000000	-0.154440	-0.242766	-0.576173	-0.286810	-0.322879	-0.612184	-0.253729	-0.590262	-0.612184	-0.176509	-0.590262	-0.504151	-0.143413	-0.495049	-0.468141	-0.088247	-0.376045	-0.432130	-1.103146	-2.746221	-3.204501	0.000000	0.000000	20.900899	-0.550921	0.848892	0.665089	-10.297681	17.558699	115.002828	81.092085	-6.458100	4.014725	2.926913	-30.549406	35.093528	115.799229	67.923161	-8.835817	5.461170
1.243902	3.583279	-13.097901	90.266498	0.210931	0.881479	0.507866	2.655310	-0.511327	-5.960177	2.336284	0.040776	22.557444	10.390636	0.000000	4.056138	-1.599273	-0.505876	0.667592	0.011652	25.676887	6.834551	0.000000	-0.192265	-0.269323	-0.463581	-0.357056	-0.358200	-0.492555	-0.315872	-0.654833	-0.492555	-0.219740	-0.654833	-0.405633	-0.178537	-0.549204	-0.376660	-0.109860	-0.417182	-0.347686	-1.373331	-3.046641	-2.578299	0.000000	0.000000	19.110223	-0.220582	1.213979	1.486322	-10.595444	18.786317	115.767165	82.359042	-7.783375	3.342615	3.275941	-30.327690	35.485795	115.295411	67.767927	-8.618180	5.684659
1.268293	3.548085	-14.467927	89.799975	0.212004	0.879176	0.512081	4.820526	-0.529062	-5.727952	3.030319	0.052889	23.186079	10.721446	0.000000	5.823896	-1.674869	-1.050087	0.927391	0.016186	25.813304	6.903259	0.000000	-0.233661	-0.304429	-0.363973	-0.433933	-0.404891	-0.386722	-0.383882	-0.740189	-0.386722	-0.267052	-0.740189	-0.318477	-0.216978	-0.620792	-0.295728	-0.133514	-0.471561	-0.272980	-1.669021	-3.443762	-2.024311	0.000000	0.000000	16.922517	0.294466	1.552876	2.371314	-11.050464	20.501858	116.333440	83.659806	-8.469955	2.827707	3.340435	-29.862171	35.406244	114.849742	68.056939	-8.155880	5.838146
1.292683	3.456573	-15.994188	89.332571	0.213068	0.876545	0.516992	7.238713	-0.574056	-5.657007	3.848882	0.067176	23.897962	11.213950	0.000000	7.838242	-1.745916	-1.641840	1.297557	0.022647	25.966787	7.000343	0.000000	-0.274262	-0.347097	-0.292969	-0.509333	-0.461638	-0.311280	-0.450586	-0.843931	-0.311280	-0.313454	-0.843931	-0.256348	-0.254680	-0.707799	-0.238038	-0.156714	-0.537653	-0.219727	-1.959029	-3.926426	-1.629407	0.000000	0.000000	14.415996	0.981128	1.955590	3.188396	-11.607156	22.610066	116.691761	84.903998	-8.526396	2.466300	3.044816	-29.138647	34.839866	114.505576	68.684102	-7.356989	5.809012
1.317073	3.293497	-17.688513	88.824331	0.214146	0.873610	0.522456	9.900168	-0.664949	-5.573949	4.767282	0.083205	24.637961	11.672576	0.000000	10.090307	-1.789136	-2.377442	1.752367	0.030585	26.124424	7.189307	0.000000	-0.310396	-0.397730	-0.245700	-0.576437	-0.528981	-0.261056	-0.509950	-0.967040	-0.261056	-0.354752	-0.967040	-0.214987	-0.288234	-0.811051	-0.199631	-0.177361	-0.616083	-0.184275	-2.217131	-4.499199	-1.366508	0.000000	0.000000	11.697471	1.790265	2.399528	3.802857	-12.185967	24.990531	116.919426	85.645584	-8.130537	2.449645	2.331092	-28.158532	33.772642	114.343860	69.703127	-6.300324	5.761663
1.341463	3.057607	-19.533404	88.288306	0.215183	0.870422	0.528328	12.766511	-0.798710	-5.559186	5.765297	0.100623	25.393265	12.201112	0.000000	12.548165	-1.804278	-3.164689	2.262775	0.039493	26.290577	7.401122	0.000000	-0.342126	-0.455299	-0.215637	-0.635362	-0.605547	-0.229114	-0.562079	-1.107013	-0.229114	-0.391016	-1.107013	-0.188682	-0.317698	-0.928445	-0.175205	-0.195491	-0.705258	-0.161728	-2.443772	-5.150429	-1.199308	0.000000	0.000000	8.912771	2.662073	2.790214	4.124981	-12.675032	27.411974	117.112470	85.871828	-7.437750	2.819305	1.264910	-26.969969	32.306828	114.390824	71.002031	-5.002777	5.750149
1.365854	2.771619	-21.507656	87.761461	0.216108	0.867029	0.534518	15.799913	-0.968906	-5.626256	6.830249	0.119210	26.140936	12.775687	0.000000	15.190947	-1.796382	-3.936384	2.823757	0.049284	26.489258	7.611563	0.000000	-0.366617	-0.516384	-0.195485	-0.680845	-0.686791	-0.207703	-0.602316	-1.255537	-0.207703	-0.419007	-1.255537	-0.171049	-0.340441	-1.053011	-0.158832	-0.209485	-0.799879	-0.146614	-2.618711	-5.841442	-1.087229	0.000000	0.000000	6.215709	3.529940	3.005856	4.120334	-12.992518	29.662090	117.314667	85.707031	-6.504148	3.547278	-0.053633	-25.634014	30.602458	114.658919	72.445993	-3.525945	5.799993
1.390244	2.434157	-23.545001	87.229374	0.216879	0.863542	0.540930	18.912865	-1.178777	-5.717969	7.920159	0.138233	26.836285	13.386858	0.000000	17.927812	-1.758273	-4.687903	3.390928	0.059183	26.726958	7.843943	0.000000	-0.386452	-0.580597	-0.179672	-0.717679	-0.772194	-0.190901	-0.634902	-1.411664	-0.190901	-0.441676	-1.411664	-0.157213	-0.358859	-1.183954	-0.145983	-0.220819	-0.899345	-0.134754	-2.760386	-6.567833	-0.999280	0.000000	0.000000	3.773066	4.346659	2.983576	3.833758	-13.133198	31.669600	117.527235	85.194389	-5.512962	4.620579	-1.570280	-24.208099	28.788979	115.166625	73.959925	-2.037685	5.849252
1.414634	2.032296	-25.607678	86.667287	0.217489	0.860056	0.547526	22.056264	-1.431703	-5.819608	9.005058	0.157168	27.444943	14.018416	0.000000	20.702275	-1.681226	-5.477339	3.932297	0.068632	26.952061	8.123547	0.000000	-0.402416	-0.648457	-0.165760	-0.747326	-0.862448	-0.176120	-0.661129	-1.576658	-0.176120	-0.459921	-1.576658	-0.145040	-0.373683	-1.322333	-0.134680	-0.229940	-1.004460	-0.124320	-2.874415	-7.335474	-0.921908	0.000000	0.000000	1.740870	5.079171	2.749068	3.334849	-13.126475	33.432462	117.753538	84.320540	-4.589825	6.056705	-3.260586	-22.811716	26.952140	115.937913	75.555643	-0.647187	5.857064
1.439024	1.618592	-27.661485	86.164057	0.217868	0.856603	0.554133	25.145227	-1.715315	-5.938436	10.024805	0.174966	27.960072	14.595875	0.000000	23.492410	-1.575827	-6.302417	4.504918	0.078626	27.196295	8.537416	0.000000	-0.415417	-0.714390	-0.167981	-0.771472	-0.950139	-0.178480	-0.682489	-1.736968	-0.178480	-0.474781	-1.736968	-0.146984	-0.385757	-1.456784	-0.136485	-0.237370	-1.106590	-0.125986	-2.967286	-8.081324	-0.934262	0.000000	0.000000	0.208973	5.745570	2.415664	2.624338	-12.977334	34.838028	117.983241	83.468947	-3.476549	7.614263	-5.131138	-21.493338	25.094310	116.986012	77.386640	0.559256	5.842683
1.463415	1.222444	-29.679873	85.748934	0.217968	0.853200	0.560612	28.140339	-2.005581	-6.094992	10.983179	0.191693	28.398735	15.128675	0.000000	26.255950	-1.467190	-7.101264	5.108127	0.089154	27.420274	8.989477	0.000000	-0.425154	-0.774463	-0.177507	-0.789553	-1.030036	-0.188601	-0.698485	-1.883030	-0.188601	-0.485908	-1.883030	-0.155318	-0.394798	-1.579286	-0.144224	-0.242933	-1.199644	-0.133130	-3.036831	-8.760883	-0.987239	0.000000	0.000000	-0.769094	6.335597	1.978957	1.640933	-12.692950	35.732036	118.280336	82.643865	-2.117979	9.196636	-7.069439	-20.284262	23.267322	118.243811	79.339637	1.683938	5.868187
